<svg width="3520" height="1049" xmlns="http://www.w3.org/2000/svg" xmlns:xlink="http://www.w3.org/1999/xlink" xml:space="preserve" overflow="hidden"><g transform="translate(-563 -128)"><g><path id="leaf-outer" d="M914.597 197 1144.73 421.717 1169.17 451.307 1193.56 496.195 1197.15 502.807C1212.51 539.079 1221 578.958 1221 620.819 1221 788.261 1085.12 924 917.5 924 749.882 924 614 788.261 614 620.819 614 578.958 622.492 539.079 637.851 502.807 647.179 485.64 658.679 468.473 674.522 449.138L914.597 197Z" stroke="#13501B" stroke-width="91.6667" stroke-linecap="butt" stroke-linejoin="miter" stroke-miterlimit="8" stroke-opacity="1" fill="none" fill-rule="evenodd"/><path id="leaf-stem" d="M917 482 917 1102.92" stroke="#13501B" stroke-width="91.6667" stroke-linecap="butt" stroke-linejoin="miter" stroke-miterlimit="8" stroke-opacity="1" fill="none" fill-rule="evenodd"/><path id="leaf-vein-1" d="M778 679 917.399 818.4" stroke="#13501B" stroke-width="91.6667" stroke-linecap="butt" stroke-linejoin="miter" stroke-miterlimit="8" stroke-opacity="1" fill="none" fill-rule="evenodd"/><path id="leaf-vein-2" d="M1056.4 551 917 690.4" stroke="#13501B" stroke-width="91.6667" stroke-linecap="butt" stroke-linejoin="miter" stroke-miterlimit="8" stroke-opacity="1" fill="none" fill-rule="evenodd"/><text id="logo-text" fill="#13501B" fill-opacity="1" font-family="Montserrat Black,Montserrat Black_MSFontService,sans-serif" font-style="normal" font-variant="normal" font-weight="900" font-stretch="normal" font-size="440" text-anchor="start" direction="ltr" writing-mode="lr-tb" unicode-bidi="normal" text-decoration="none" transform="matrix(1 0 0 1 1557.09 802)">RAG4ESG</text></g></g></svg>